#N canvas 295 78 670 547 10;
#X obj 142 -47 ctlin;
#X obj 142 3 pack f f f;
#X obj 124 152 print ctl;
#X obj 307 73 pack f f f;
#X obj 307 23 notein;
#X obj 307 114 unpack f f f;
#X obj 360 175 / 127;
#X obj 393 265 vline~;
#X obj 318 345 *~;
#X obj 273 303 osc~ 880;
#X obj 344 454 dac~;
#X obj 260 254 vline~;
#X msg 260 226 \$1 20;
#X obj 261 193 mtof;
#X obj 362 200 route 0;
#X obj 288 146 + 32;
#X obj 192 75 route 127;
#X obj 268 171 +;
#X msg 142 24 \$3 \$2 \$1;
#X obj 167 49 route 1;
#X floatatom 206 152 5 0 0 0 - - -;
#X obj 192 100 * 12;
#X msg 347 233 0 500;
#X msg 408 232 0 10 \, \$1 20 10;
#X obj 332 389 *~ 0.7;
#X connect 0 0 1 0;
#X connect 0 1 1 1;
#X connect 0 2 1 2;
#X connect 1 0 18 0;
#X connect 3 0 5 0;
#X connect 4 0 3 0;
#X connect 4 1 3 1;
#X connect 4 2 3 2;
#X connect 5 0 15 0;
#X connect 5 1 6 0;
#X connect 6 0 14 0;
#X connect 7 0 8 1;
#X connect 8 0 24 0;
#X connect 9 0 8 0;
#X connect 11 0 9 0;
#X connect 12 0 11 0;
#X connect 13 0 12 0;
#X connect 14 0 22 0;
#X connect 14 1 23 0;
#X connect 15 0 17 0;
#X connect 16 0 21 0;
#X connect 17 0 13 0;
#X connect 18 0 2 0;
#X connect 18 0 19 0;
#X connect 19 0 16 0;
#X connect 21 0 17 1;
#X connect 21 0 20 0;
#X connect 22 0 7 0;
#X connect 23 0 7 0;
#X connect 24 0 10 0;
#X connect 24 0 10 1;
