#N canvas 364 87 462 455 10;
#X obj 167 133 ctlin;
#X obj 167 183 pack f f f;
#X obj 167 224 print ctl;
#X obj 23 64 pack f f f;
#X obj 23 14 notein;
#X obj 23 105 unpack f f f;
#X obj 76 166 / 127;
#X obj 76 222 vline~;
#X msg 76 194 \$1 10;
#X obj 52 268 *~;
#X obj 11 220 osc~ 880;
#X obj 78 377 dac~;
#X connect 0 0 1 0;
#X connect 0 1 1 1;
#X connect 0 2 1 2;
#X connect 1 0 2 0;
#X connect 3 0 5 0;
#X connect 4 0 3 0;
#X connect 4 1 3 1;
#X connect 4 2 3 2;
#X connect 5 1 6 0;
#X connect 6 0 8 0;
#X connect 7 0 9 1;
#X connect 8 0 7 0;
#X connect 9 0 11 0;
#X connect 9 0 11 1;
#X connect 10 0 9 0;
